<svg xmlns="http://www.w3.org/2000/svg" width="1080" height="1920" viewBox="0 0 1080 1920" role="img" aria-label="ureel start background">
  <defs>
    <linearGradient id="bg" x1="0" y1="0" x2="1" y2="1">
      <stop offset="0" stop-color="#0F0F0F"/>
      <stop offset="0.45" stop-color="#1A1713"/>
      <stop offset="1" stop-color="#4A3A27"/>
    </linearGradient>
    <radialGradient id="glow" cx="38%" cy="18%" r="78%">
      <stop offset="0" stop-color="#F5F2EA" stop-opacity="0.22"/>
      <stop offset="0.35" stop-color="#E8DCC2" stop-opacity="0.09"/>
      <stop offset="1" stop-color="#000000" stop-opacity="0"/>
    </radialGradient>
    <linearGradient id="cream" x1="0" y1="0" x2="1" y2="0">
      <stop offset="0" stop-color="#F5F2EA" stop-opacity="0.04"/>
      <stop offset="0.45" stop-color="#F5F2EA" stop-opacity="0.28"/>
      <stop offset="1" stop-color="#C9A66A" stop-opacity="0.12"/>
    </linearGradient>
    <filter id="soft" x="-20%" y="-20%" width="140%" height="140%">
      <feGaussianBlur stdDeviation="16"/>
    </filter>
  </defs>
  <rect width="1080" height="1920" fill="url(#bg)"/>
  <rect width="1080" height="1920" fill="url(#glow)"/>
  <path d="M-130 1350 C 210 1160, 380 1190, 670 1040 C 860 942, 1020 800, 1210 760" fill="none" stroke="url(#cream)" stroke-width="190" stroke-linecap="round" opacity="0.86" filter="url(#soft)"/>
  <path d="M-90 1374 C 226 1207, 452 1212, 704 1080 C 886 984, 1018 864, 1166 815" fill="none" stroke="#E8DCC2" stroke-width="3" opacity="0.62"/>
  <path d="M-80 1542 C 240 1380, 520 1408, 822 1240 C 968 1158, 1115 1042, 1210 1010" fill="none" stroke="#C9A66A" stroke-width="2" opacity="0.34"/>
  <circle cx="910" cy="270" r="420" fill="#F5F2EA" opacity="0.035"/>
  <circle cx="70" cy="1740" r="360" fill="#E8DCC2" opacity="0.045"/>
  <rect width="1080" height="1920" fill="#000" opacity="0.10"/>
</svg>
